<svg width="20" height="20" viewBox="0 0 20 20" xmlns="http://www.w3.org/2000/svg">
  <!-- White circle background -->
  <circle cx="10" cy="10" r="10" fill="white"/>
  
  <!-- GitHub logo - scaled and centered -->
  <path d="M10 2C6.477 2 3.5 4.977 3.5 8.5c0 2.873 1.86 5.31 4.438 6.175.325.059.438-.141.438-.313 0-.155-.006-.565-.009-1.108-1.813.394-2.195-.873-2.195-.873-.295-.748-.72-.948-.72-.948-.589-.402.045-.394.045-.394.65.046.992.667.992.667.579.992 1.518.705 1.888.539.059-.419.227-.705.413-.867-1.444-.164-2.963-.722-2.963-3.214 0-.71.253-1.29.667-1.746-.067-.163-.289-.821.063-1.711 0 0 .544-.175 1.781.666A6.159 6.159 0 0110 6.77c.55.003 1.103.075 1.621.219 1.236-.841 1.78-.666 1.78-.666.353.89.131 1.548.064 1.711.415.456.666 1.036.666 1.746 0 2.498-1.52 3.048-2.967 3.208.233.201.441.597.441 1.204 0 .869-.008 1.57-.008 1.784 0 .174.117.375.446.311A8.513 8.513 0 0016.5 8.5C16.5 4.977 13.522 2 10 2z" fill="#181717"/>
</svg>